<svg width="24" height="24" viewBox="0 0 24 24" fill="none" xmlns="http://www.w3.org/2000/svg">
<path d="M21.4235 11.9011L14.4418 2.87068L14.4418 2.87067C14.3543 2.75739 14.3105 2.70076 14.2719 2.69424C14.2386 2.6886 14.2047 2.70018 14.1818 2.72504C14.1553 2.75376 14.1553 2.82535 14.1553 2.96854V8.84005C14.1553 8.89606 14.1553 8.92406 14.1444 8.94545C14.1348 8.96427 14.1195 8.97957 14.1007 8.98915C14.0793 9.00005 14.0513 9.00005 13.9953 9.00005H2.66C2.60399 9.00005 2.57599 9.00005 2.5546 9.01095C2.53578 9.02054 2.52049 9.03584 2.5109 9.05465C2.5 9.07604 2.5 9.10405 2.5 9.16005V14.3381C2.5 14.3947 2.5 14.423 2.51106 14.4445C2.52079 14.4634 2.5363 14.4788 2.55534 14.4883C2.57699 14.4991 2.6053 14.4987 2.6619 14.4981L13.8381 14.3652C13.8947 14.3645 13.923 14.3641 13.9447 14.375C13.9637 14.3845 13.9792 14.3998 13.9889 14.4187C14 14.4402 14 14.4685 14 14.5251V21.0391C14 21.1803 14 21.2509 14.0263 21.2795C14.049 21.3043 14.0827 21.316 14.116 21.3107C14.1544 21.3044 14.1981 21.2491 14.2856 21.1383L21.4225 12.0981L21.4226 12.0981C21.4502 12.063 21.4641 12.0455 21.4695 12.0261C21.4742 12.0089 21.4743 11.9908 21.4697 11.9736C21.4645 11.9541 21.4509 11.9365 21.4235 11.9011Z" fill="black"/>
<path d="M21.4235 11.9011L14.4418 2.87068L14.4418 2.87067C14.3543 2.75739 14.3105 2.70076 14.2719 2.69424C14.2386 2.6886 14.2047 2.70018 14.1818 2.72504C14.1553 2.75376 14.1553 2.82535 14.1553 2.96854V8.84005C14.1553 8.89606 14.1553 8.92406 14.1444 8.94545C14.1348 8.96427 14.1195 8.97957 14.1007 8.98915C14.0793 9.00005 14.0513 9.00005 13.9953 9.00005H2.66C2.60399 9.00005 2.57599 9.00005 2.5546 9.01095C2.53578 9.02054 2.52049 9.03584 2.5109 9.05465C2.5 9.07604 2.5 9.10405 2.5 9.16005V14.3381C2.5 14.3947 2.5 14.423 2.51106 14.4445C2.52079 14.4634 2.5363 14.4788 2.55534 14.4883C2.57699 14.4991 2.6053 14.4987 2.6619 14.4981L13.8381 14.3652C13.8947 14.3645 13.923 14.3641 13.9447 14.375C13.9637 14.3845 13.9792 14.3998 13.9889 14.4187C14 14.4402 14 14.4685 14 14.5251V21.0391C14 21.1803 14 21.2509 14.0263 21.2795C14.049 21.3043 14.0827 21.316 14.116 21.3107C14.1544 21.3044 14.1981 21.2491 14.2856 21.1383L21.4225 12.0981L21.4226 12.0981C21.4502 12.063 21.4641 12.0455 21.4695 12.0261C21.4742 12.0089 21.4743 11.9908 21.4697 11.9736C21.4645 11.9541 21.4509 11.9365 21.4235 11.9011Z" stroke="black" stroke-linecap="round"/>
</svg>
