<svg width="24" height="24" viewBox="0 0 24 24" fill="none" xmlns="http://www.w3.org/2000/svg">
<path d="M2.2 9.125H21.8C21.8414 9.125 21.875 9.15858 21.875 9.2V13.8C21.875 13.8414 21.8414 13.875 21.8 13.875H2.2C2.15858 13.875 2.125 13.8414 2.125 13.8V9.2C2.125 9.15858 2.15858 9.125 2.2 9.125Z" fill="#040404" stroke="#080808" stroke-width="0.25"/>
<path d="M9.2 2.125H14.8C14.8414 2.125 14.875 2.15858 14.875 2.2V21.8C14.875 21.8414 14.8414 21.875 14.8 21.875H9.2C9.15858 21.875 9.125 21.8414 9.125 21.8V2.2C9.125 2.15858 9.15858 2.125 9.2 2.125Z" fill="black" stroke="black" stroke-width="0.25"/>
</svg>
