<svg width="24" height="24" viewBox="0 0 24 24" fill="none" xmlns="http://www.w3.org/2000/svg">
<path d="M5.125 6.86578H18.875V21.9803H5.125V6.86578Z" fill="#D9D9D9" stroke="black" stroke-width="0.25"/>
<path d="M7 9L7 20" stroke="#010101" stroke-width="0.4" stroke-linecap="round"/>
<path d="M9 9L9 20" stroke="#010101" stroke-width="0.4" stroke-linecap="round"/>
<path d="M11 9L11 20" stroke="#010101" stroke-width="0.4" stroke-linecap="round"/>
<path d="M13 9L13 20" stroke="#010101" stroke-width="0.4" stroke-linecap="round"/>
<path d="M15 9L15 20" stroke="#010101" stroke-width="0.4" stroke-linecap="round"/>
<path d="M17 9L17 20" stroke="#010101" stroke-width="0.4" stroke-linecap="round"/>
<mask id="path-8-inside-1_9_108" fill="white">
<path d="M17 6.75C17 5.49022 16.4732 4.28204 15.5355 3.39124C14.5979 2.50045 13.3261 2 12 2C10.6739 2 9.40215 2.50044 8.46447 3.39124C7.52678 4.28204 7 5.49022 7 6.75L12 6.75H17Z"/>
</mask>
<path d="M17 6.75C17 5.49022 16.4732 4.28204 15.5355 3.39124C14.5979 2.50045 13.3261 2 12 2C10.6739 2 9.40215 2.50044 8.46447 3.39124C7.52678 4.28204 7 5.49022 7 6.75L12 6.75H17Z" stroke="black" stroke-width="0.5" mask="url(#path-8-inside-1_9_108)"/>
<path d="M5 6.74078L19 6.74078" stroke="#010101" stroke-width="0.4" stroke-linecap="round"/>
</svg>
